<svg width="172" height="30" viewBox="0 0 172 30" fill="none" xmlns="http://www.w3.org/2000/svg">
<rect x="2.5" y="2.5" width="25" height="25" fill="white" stroke="black" stroke-width="5"/>
<path d="M51.8867 14.6699C51.8867 15.1914 51.8223 15.6572 51.6934 16.0674C51.5645 16.4775 51.3887 16.8408 51.166 17.1572C50.9492 17.4678 50.6973 17.7344 50.4102 17.957C50.123 18.1797 49.8213 18.3613 49.5049 18.502C49.1943 18.6426 48.8779 18.7451 48.5557 18.8096C48.2393 18.874 47.9404 18.9062 47.6592 18.9062H42.4912V16.6211H47.6592C47.9521 16.5977 48.2158 16.5391 48.4502 16.4453C48.6904 16.3457 48.8955 16.2139 49.0654 16.0498C49.2354 15.8857 49.3672 15.6895 49.4609 15.4609C49.5547 15.2266 49.6016 14.9629 49.6016 14.6699V13.6328C49.5723 13.3457 49.5107 13.082 49.417 12.8418C49.3232 12.6016 49.1943 12.3965 49.0303 12.2266C48.8721 12.0566 48.6787 11.9248 48.4502 11.8311C48.2217 11.7314 47.958 11.6816 47.6592 11.6816H42.5088C42.2041 11.6816 41.9727 11.7607 41.8145 11.9189C41.6562 12.0771 41.5771 12.3057 41.5771 12.6045V22H39.292V12.6045C39.292 12.0186 39.3975 11.5205 39.6084 11.1104C39.8252 10.7002 40.0918 10.3691 40.4082 10.1172C40.7305 9.86523 41.0791 9.68359 41.4541 9.57227C41.8291 9.45508 42.1748 9.39648 42.4912 9.39648H47.6592C48.1748 9.39648 48.6377 9.46387 49.0479 9.59863C49.458 9.72754 49.8184 9.90332 50.1289 10.126C50.4453 10.3428 50.7119 10.5947 50.9287 10.8818C51.1514 11.1689 51.333 11.4707 51.4736 11.7871C51.6201 12.0977 51.7256 12.4141 51.79 12.7363C51.8545 13.0527 51.8867 13.3516 51.8867 13.6328V14.6699ZM66.4414 13.6328C66.4414 14.1543 66.377 14.6201 66.248 15.0303C66.1191 15.4404 65.9434 15.8037 65.7207 16.1201C65.5039 16.4307 65.252 16.6973 64.9648 16.9199C64.6777 17.1426 64.376 17.3271 64.0596 17.4736C63.749 17.6143 63.4326 17.7168 63.1104 17.7812C62.7939 17.8457 62.4951 17.8779 62.2139 17.8779L66.9863 22H63.4531L58.6895 17.8779H57.0459V15.5928H62.2139C62.501 15.5693 62.7617 15.5107 62.9961 15.417C63.2363 15.3174 63.4414 15.1855 63.6113 15.0215C63.7871 14.8574 63.9219 14.6611 64.0156 14.4326C64.1094 14.1982 64.1562 13.9316 64.1562 13.6328V12.1914C64.1562 12.0625 64.1387 11.9658 64.1035 11.9014C64.0742 11.8311 64.0332 11.7812 63.9805 11.752C63.9336 11.7168 63.8809 11.6963 63.8223 11.6904C63.7695 11.6846 63.7197 11.6816 63.6729 11.6816H56.1318V22H53.8467V10.5479C53.8467 10.3896 53.876 10.2402 53.9346 10.0996C53.9932 9.95898 54.0723 9.83594 54.1719 9.73047C54.2773 9.625 54.4004 9.54297 54.541 9.48438C54.6816 9.42578 54.834 9.39648 54.998 9.39648H63.6729C64.1826 9.39648 64.6133 9.49023 64.9648 9.67773C65.3164 9.85938 65.6006 10.0908 65.8174 10.3721C66.04 10.6475 66.1982 10.9463 66.292 11.2686C66.3916 11.5908 66.4414 11.8926 66.4414 12.1738V13.6328ZM81.9629 16.9023C81.9629 17.6699 81.8311 18.376 81.5674 19.0205C81.3037 19.665 80.9375 20.2217 80.4688 20.6904C80 21.1592 79.4434 21.5254 78.7988 21.7891C78.1602 22.0469 77.4629 22.1758 76.707 22.1758H73.6133C72.8574 22.1758 72.1572 22.0469 71.5127 21.7891C70.8682 21.5254 70.3115 21.1592 69.8428 20.6904C69.374 20.2217 69.0049 19.665 68.7354 19.0205C68.4717 18.376 68.3398 17.6699 68.3398 16.9023V14.4941C68.3398 13.7324 68.4717 13.0293 68.7354 12.3848C69.0049 11.7344 69.374 11.1777 69.8428 10.7148C70.3115 10.2461 70.8682 9.87988 71.5127 9.61621C72.1572 9.35254 72.8574 9.2207 73.6133 9.2207H76.707C77.4629 9.2207 78.1602 9.35254 78.7988 9.61621C79.4434 9.87988 80 10.2461 80.4688 10.7148C80.9375 11.1777 81.3037 11.7344 81.5674 12.3848C81.8311 13.0293 81.9629 13.7324 81.9629 14.4941V16.9023ZM79.6777 14.4941C79.6777 14.043 79.6045 13.6357 79.458 13.2725C79.3174 12.9033 79.1152 12.5898 78.8516 12.332C78.5938 12.0684 78.2803 11.8662 77.9111 11.7256C77.5479 11.5791 77.1465 11.5059 76.707 11.5059H73.6133C73.168 11.5059 72.7607 11.5791 72.3916 11.7256C72.0283 11.8662 71.7148 12.0684 71.4512 12.332C71.1875 12.5898 70.9824 12.9033 70.8359 13.2725C70.6953 13.6357 70.625 14.043 70.625 14.4941V16.9023C70.625 17.3535 70.6953 17.7637 70.8359 18.1328C70.9824 18.4961 71.1875 18.8096 71.4512 19.0732C71.7148 19.3311 72.0283 19.5332 72.3916 19.6797C72.7607 19.8203 73.168 19.8906 73.6133 19.8906H76.6895C77.1348 19.8906 77.5391 19.8203 77.9023 19.6797C78.2715 19.5332 78.5879 19.3311 78.8516 19.0732C79.1152 18.8096 79.3174 18.4961 79.458 18.1328C79.6045 17.7637 79.6777 17.3535 79.6777 16.9023V14.4941ZM94.6455 16.8496H87.4209V14.5469H94.6455V16.8496ZM95.665 11.6816H86.5068V22H84.2217V10.5479C84.2217 10.3896 84.251 10.2402 84.3096 10.0996C84.3682 9.95898 84.4473 9.83594 84.5469 9.73047C84.6523 9.625 84.7754 9.54297 84.916 9.48438C85.0566 9.42578 85.209 9.39648 85.373 9.39648H95.665V11.6816ZM109.622 18.291C109.622 18.7422 109.563 19.1494 109.446 19.5127C109.335 19.8701 109.186 20.1865 108.998 20.4619C108.811 20.7373 108.591 20.9717 108.339 21.165C108.087 21.3584 107.826 21.5166 107.557 21.6396C107.287 21.7627 107.012 21.8535 106.73 21.9121C106.455 21.9707 106.194 22 105.948 22H97.1328V19.7148H105.948C106.388 19.7148 106.728 19.5859 106.968 19.3281C107.214 19.0703 107.337 18.7246 107.337 18.291C107.337 18.0801 107.305 17.8867 107.24 17.7109C107.176 17.5352 107.082 17.3828 106.959 17.2539C106.842 17.125 106.695 17.0254 106.52 16.9551C106.35 16.8848 106.159 16.8496 105.948 16.8496H100.692C100.323 16.8496 99.9248 16.7852 99.4971 16.6562C99.0693 16.5215 98.6709 16.3076 98.3018 16.0146C97.9385 15.7217 97.6338 15.3379 97.3877 14.8633C97.1475 14.3887 97.0273 13.8086 97.0273 13.123C97.0273 12.4375 97.1475 11.8604 97.3877 11.3916C97.6338 10.917 97.9385 10.5332 98.3018 10.2402C98.6709 9.94141 99.0693 9.72754 99.4971 9.59863C99.9248 9.46387 100.323 9.39648 100.692 9.39648H108.471V11.6816H100.692C100.259 11.6816 99.9189 11.8135 99.6729 12.0771C99.4326 12.3408 99.3125 12.6895 99.3125 13.123C99.3125 13.5625 99.4326 13.9111 99.6729 14.1689C99.9189 14.4209 100.259 14.5469 100.692 14.5469H105.948H105.966C106.212 14.5527 106.473 14.5879 106.748 14.6523C107.023 14.7109 107.296 14.8047 107.565 14.9336C107.841 15.0625 108.102 15.2266 108.348 15.4258C108.594 15.6191 108.811 15.8535 108.998 16.1289C109.191 16.4043 109.344 16.7207 109.455 17.0781C109.566 17.4355 109.622 17.8398 109.622 18.291ZM122.806 22H114.562C114.351 22 114.122 21.9766 113.876 21.9297C113.636 21.877 113.396 21.7979 113.155 21.6924C112.921 21.5869 112.695 21.4521 112.479 21.2881C112.262 21.1182 112.068 20.916 111.898 20.6816C111.734 20.4414 111.603 20.166 111.503 19.8555C111.403 19.5391 111.354 19.1846 111.354 18.792V12.6045C111.354 12.3936 111.377 12.168 111.424 11.9277C111.477 11.6816 111.556 11.4414 111.661 11.207C111.767 10.9668 111.904 10.7383 112.074 10.5215C112.244 10.3047 112.446 10.1143 112.681 9.9502C112.921 9.78027 113.196 9.64551 113.507 9.5459C113.817 9.44629 114.169 9.39648 114.562 9.39648H122.806V11.6816H114.562C114.263 11.6816 114.034 11.7607 113.876 11.9189C113.718 12.0771 113.639 12.3115 113.639 12.6221V18.792C113.639 19.085 113.718 19.3135 113.876 19.4775C114.04 19.6357 114.269 19.7148 114.562 19.7148H122.806V22ZM137.562 13.6328C137.562 14.1543 137.498 14.6201 137.369 15.0303C137.24 15.4404 137.064 15.8037 136.842 16.1201C136.625 16.4307 136.373 16.6973 136.086 16.9199C135.799 17.1426 135.497 17.3271 135.181 17.4736C134.87 17.6143 134.554 17.7168 134.231 17.7812C133.915 17.8457 133.616 17.8779 133.335 17.8779L138.107 22H134.574L129.811 17.8779H128.167V15.5928H133.335C133.622 15.5693 133.883 15.5107 134.117 15.417C134.357 15.3174 134.562 15.1855 134.732 15.0215C134.908 14.8574 135.043 14.6611 135.137 14.4326C135.23 14.1982 135.277 13.9316 135.277 13.6328V12.1914C135.277 12.0625 135.26 11.9658 135.225 11.9014C135.195 11.8311 135.154 11.7812 135.102 11.752C135.055 11.7168 135.002 11.6963 134.943 11.6904C134.891 11.6846 134.841 11.6816 134.794 11.6816H127.253V22H124.968V10.5479C124.968 10.3896 124.997 10.2402 125.056 10.0996C125.114 9.95898 125.193 9.83594 125.293 9.73047C125.398 9.625 125.521 9.54297 125.662 9.48438C125.803 9.42578 125.955 9.39648 126.119 9.39648H134.794C135.304 9.39648 135.734 9.49023 136.086 9.67773C136.438 9.85938 136.722 10.0908 136.938 10.3721C137.161 10.6475 137.319 10.9463 137.413 11.2686C137.513 11.5908 137.562 11.8926 137.562 12.1738V13.6328ZM142.159 22H139.874V9.39648H142.159V22ZM157.391 14.6699C157.391 15.1914 157.326 15.6572 157.197 16.0674C157.068 16.4775 156.893 16.8408 156.67 17.1572C156.453 17.4678 156.201 17.7344 155.914 17.957C155.627 18.1797 155.325 18.3613 155.009 18.502C154.698 18.6426 154.382 18.7451 154.06 18.8096C153.743 18.874 153.444 18.9062 153.163 18.9062H147.995V16.6211H153.163C153.456 16.5977 153.72 16.5391 153.954 16.4453C154.194 16.3457 154.399 16.2139 154.569 16.0498C154.739 15.8857 154.871 15.6895 154.965 15.4609C155.059 15.2266 155.105 14.9629 155.105 14.6699V13.6328C155.076 13.3457 155.015 13.082 154.921 12.8418C154.827 12.6016 154.698 12.3965 154.534 12.2266C154.376 12.0566 154.183 11.9248 153.954 11.8311C153.726 11.7314 153.462 11.6816 153.163 11.6816H148.013C147.708 11.6816 147.477 11.7607 147.318 11.9189C147.16 12.0771 147.081 12.3057 147.081 12.6045V22H144.796V12.6045C144.796 12.0186 144.901 11.5205 145.112 11.1104C145.329 10.7002 145.596 10.3691 145.912 10.1172C146.234 9.86523 146.583 9.68359 146.958 9.57227C147.333 9.45508 147.679 9.39648 147.995 9.39648H153.163C153.679 9.39648 154.142 9.46387 154.552 9.59863C154.962 9.72754 155.322 9.90332 155.633 10.126C155.949 10.3428 156.216 10.5947 156.433 10.8818C156.655 11.1689 156.837 11.4707 156.978 11.7871C157.124 12.0977 157.229 12.4141 157.294 12.7363C157.358 13.0527 157.391 13.3516 157.391 13.6328V14.6699ZM170.741 11.6816H165.705V22H163.42V11.6816H158.375V9.39648H170.741V11.6816Z" fill="white"/>
</svg>
